# xmcd CD database file
#
# Track frame offsets:
#	150
#	13301
#	24387
#	39296
#	57859
#	70578
#	81693
#	101432
#	114059
#	129485
#	143438
#	159134
#	173453
#	190381
#	216514
#	244683
#	265215
#	295673
#
# Disc length: 4099 seconds
#
# Revision: 0
# Processed by: cddbd v1.5.2PL0 Copyright (c) Steve Scherf et al.
# Submitted via: CDex 1.51
#
DISCID=ec100112
DTITLE=Guitares Jazz - CD2 Guitares Acoustiques
DYEAR=2009
DGENRE=Jazz
TTITLE0=Biréli Lagrène - Les Yeux Noirs
TTITLE1=Sanseverino - Grand Jean-Luc
TTITLE2=Latcho Drom - Todo Modo
TTITLE3=Romane - Gysy Rag
TTITLE4=Thomas Dutronc - China Boy
TTITLE5=Django Reinhardt - Swing 42
TTITLE6=Tchavolo Schmitt - It Had To Be You
TTITLE7=Fapy Lafertin Quintet and Tim Kliphuis - How High The Moon
TTITLE8=The Rosenberg Trio - Duke and Dukie
TTITLE9=Zaïti - Four On Six
TTITLE10=Sylvain Luc - Pata Pata
TTITLE11=Gadjo Combo - Swing Blues
TTITLE12=Baden Powell - Mesa Redonda
TTITLE13=Christian Escoudé - It Might As Well Be Spring
TTITLE14=Paco de Lucia - Entre Dos Aguas
TTITLE15=Christophe Lartilleux - Still Loving You
TTITLE16=Ferenc Snétberger - Song To The East
TTITLE17=John McLauglin - Blue In Green
EXTD=YEAR: 2009
EXTT0=
EXTT1=
EXTT2=
EXTT3=
EXTT4=
EXTT5=
EXTT6=
EXTT7=
EXTT8=
EXTT9=
EXTT10=
EXTT11=
EXTT12=
EXTT13=
EXTT14=
EXTT15=
EXTT16=
EXTT17=
PLAYORDER=
